# xmcd
# 
# Track frame offsets:
#   150
#   24386
#   42132
#   61353
#   77523
#   93895
#   113358
#   129808
#   147066
#   163992
#   183699
#   199391
#   214532
#   232061
#   249672
# 
# Disc length: 3573 seconds
# 
# Revision: 1
# Processed by: cddbd v1.5.2PL0 Copyright (c) Steve Scherf et al.
# Submitted via: Synapstar 1.0 
# 
DISCID=c50df30f
DTITLE=Various Artist - CB - Country Hits - April 2008
DYEAR=2008
DGENRE=Country
TTITLE0=Alan Jackson - Good Time
TTITLE1=Kenny Chesney - Better As A Memory
TTITLE2=Carrie Underwood - Last Name
TTITLE3=Tim McGraw - Kristofferson
TTITLE4=Jimmy Wayne - Do You Believe Me Now
TTITLE5=Sugarland Feat. Little Big Town and Jake Owens - Life In A Northern Town
TTITLE6=Gary Allan - Learning How To Bend
TTITLE7=Mark Chesnutt - When You Love Her Like Crazy
TTITLE8=Heidi Newfield - Johnny and June
TTITLE9=Jamey Johnson - In Color
TTITLE10=James Otto - Ain't Gonna Stop
TTITLE11=Julianne Hough - That Song In My Head
TTITLE12=Eric Church - His Kinda Money (My Kind Of Love)
TTITLE13=Rodney Atkins - Invisibly Shaken
TTITLE14=Judy Kanyo - You Wouldn't Lie To An Angel Would Ya
EXTD=MediaType: Karaoke CD+G Producer: Chartbuster
EXTT0=
EXTT1=
EXTT2=
EXTT3=
EXTT4=
EXTT5=
EXTT6=
EXTT7=
EXTT8=
EXTT9=
EXTT10=
EXTT11=
EXTT12=
EXTT13=
EXTT14=
PLAYORDER=
